# xmcd CD database file
#
# Track frame offsets:
#	150
#	24797
#	41035
#	49667
#	65180
#	69945
#	86895
#	107435
#	131255
#	154185
#	183822
#	205007
#
# Disc length: 2867 seconds
#
# Revision: 0
# Processed by: cddbd v1.4PL0 Copyright (c) Steve Scherf et al.
# Submitted via: CDex 1.50
#
DISCID=970b310c
DTITLE=Homesick James - Goin' Back in the Times
DYEAR=1994
DGENRE=Blues
TTITLE0=Livin' Like a Bear
TTITLE1=Bad Situation
TTITLE2=Kissing in the Dark
TTITLE3=Better Know What You Runnin' From
TTITLE4=Goin' Back in the Times
TTITLE5=Rocky Mountain
TTITLE6=They Call Me Hot Foot Homesick
TTITLE7=What Done Got Into That Woman
TTITLE8=Crossroads Years Ago (Honeyboy is a Friend of Mine)
TTITLE9=Bittn' Me and Shakin' Me All Up and Down
TTITLE10=38 Pistol
TTITLE11=Bonus Track
EXTD=YEAR: 1994
EXTT0=
EXTT1=
EXTT2=
EXTT3=
EXTT4=
EXTT5=
EXTT6=
EXTT7=
EXTT8=
EXTT9=
EXTT10=
EXTT11=
PLAYORDER=
